<svg xmlns="http://www.w3.org/2000/svg" fill="none" viewBox="0 0 512 512">
  <path fill="#000" d="M512 256c0 141.385-114.615 256-256 256S0 397.385 0 256 114.615 0 256 0s256 114.615 256 256Z"/>
  <path fill="#fff" d="M303.479 259.254h-50.29c-2.839 0-3.042.101-3.244 2.94-.507 7.605-1.318 15.209-3.042 22.712-4.867 20.887-15.107 38.63-30.316 53.433-8.618 8.314-18.048 15.513-28.694 20.988-9.429 4.867-19.365 8.111-29.809 9.936-11.153 2.028-22.407 2.13-33.56.812-12.269-1.42-24.03-4.766-35.284-10.14-11.66-5.576-22.104-12.775-31.33-21.799-9.937-9.733-17.845-20.785-23.827-33.357-5.982-12.674-9.328-25.956-10.038-39.847-.101-1.318 0-2.636 0-4.056 0-1.216.71-1.825 1.825-1.926.811-.102 1.521 0 2.332 0h100.479c2.028-.102 2.433-.406 2.535-2.434.405-4.461.811-9.023 1.419-13.485 1.318-10.037 3.954-19.872 7.909-29.2 3.041-7.3 6.793-14.195 11.355-20.684 6.996-9.936 15.513-18.25 25.145-25.652 8.314-6.286 17.338-11.457 26.97-15.31 11.255-4.461 22.915-6.996 35.082-7.402 10.646-.304 21.191.609 31.634 3.042 18.047 4.157 34.169 12.066 48.059 24.334 10.038 8.821 18.048 19.163 24.436 30.924 5.373 9.937 9.328 20.38 11.457 31.33 1.318 7.098 1.723 14.296 2.433 21.495.304 2.94-.203 3.245-3.143 3.346h-50.493Z"/>
  <path fill="#fff" d="M317.37 273.043h52.013c1.826-.101 2.434-.608 2.434-2.433-.101-6.692-.102-13.282-.406-19.974-.405-9.024-2.129-17.845-4.461-26.564-2.332-8.822-5.678-17.237-9.936-25.348-5.374-10.139-11.964-19.467-19.873-27.68-4.461-4.664-9.429-8.922-14.195-13.282-1.825-1.623-1.825-2.332.305-3.549 8.922-4.765 18.453-8.111 28.288-10.038 13.18-2.636 26.564-2.839 39.846-.811 7.706 1.217 15.108 3.042 22.306 5.779 7.909 2.941 15.31 6.794 22.306 11.356 8.619 5.678 16.324 12.471 23.118 20.278 8.212 9.43 14.701 19.873 19.467 31.533 5.779 14.094 8.517 28.694 8.415 43.801a113.131 113.131 0 0 1-6.387 36.704c-4.969 14.093-12.37 26.666-22.306 37.819-8.01 9.023-17.338 16.628-27.782 22.711-12.369 7.098-25.55 11.762-39.644 13.789-13.992 2.028-27.882 1.521-41.671-1.52-13.181-2.941-25.348-8.01-36.603-15.31-10.037-6.489-18.858-14.499-26.361-23.827-6.591-8.213-11.964-17.237-16.121-26.869a103.949 103.949 0 0 1-6.997-23.421c-.405-2.332.102-2.941 2.434-2.941 17.338-.203 34.574-.203 51.811-.203Z"/>
</svg>
